<?xml version="1.0" encoding="utf-8"?>
<!-- Generator: Adobe Illustrator 16.0.0, SVG Export Plug-In . SVG Version: 6.00 Build 0)  -->
<!DOCTYPE svg PUBLIC "-//W3C//DTD SVG 1.1//EN" "http://www.w3.org/Graphics/SVG/1.1/DTD/svg11.dtd">
<svg version="1.1" id="Layer_1" xmlns="http://www.w3.org/2000/svg" xmlns:xlink="http://www.w3.org/1999/xlink" x="0px" y="0px"
	 width="211.547px" height="96.343px" viewBox="0 0 211.547 96.343" enable-background="new 0 0 211.547 96.343"
	 xml:space="preserve">
<g>
	<path fill="#F2F2F2" d="M37.012,50.958c0,1.383-1.121,2.503-2.503,2.503h-18.58c-1.382,0-2.503-1.121-2.503-2.503v-5.932
		c0-1.383,1.121-2.503,2.503-2.503h18.58c1.383,0,2.503,1.121,2.503,2.503V50.958z"/>
	<path fill="#F2F2F2" d="M63.864,50.958c0,1.383-1.121,2.503-2.503,2.503H42.78c-1.383,0-2.503-1.121-2.503-2.503v-5.932
		c0-1.383,1.121-2.503,2.503-2.503h18.58c1.383,0,2.503,1.121,2.503,2.503V50.958z"/>
	<path fill="#F2F2F2" d="M90.715,50.958c0,1.383-1.12,2.503-2.503,2.503h-18.58c-1.382,0-2.503-1.121-2.503-2.503v-5.932
		c0-1.383,1.121-2.503,2.503-2.503h18.58c1.383,0,2.503,1.121,2.503,2.503V50.958z"/>
	<path fill="#F2F2F2" d="M117.566,50.958c0,1.383-1.12,2.503-2.503,2.503h-18.58c-1.383,0-2.503-1.121-2.503-2.503v-5.932
		c0-1.383,1.12-2.503,2.503-2.503h18.58c1.383,0,2.503,1.121,2.503,2.503V50.958z"/>
	<path fill="#F2F2F2" d="M144.419,50.958c0,1.383-1.121,2.503-2.503,2.503h-18.581c-1.383,0-2.503-1.121-2.503-2.503v-5.932
		c0-1.383,1.12-2.503,2.503-2.503h18.581c1.382,0,2.503,1.121,2.503,2.503V50.958z"/>
	<path fill="#F2F2F2" d="M171.27,50.958c0,1.383-1.121,2.503-2.503,2.503h-18.581c-1.382,0-2.503-1.121-2.503-2.503v-5.932
		c0-1.383,1.121-2.503,2.503-2.503h18.581c1.382,0,2.503,1.121,2.503,2.503V50.958z"/>
	<path fill="#F2F2F2" d="M198.121,50.958c0,1.383-1.12,2.503-2.504,2.503h-18.58c-1.382,0-2.504-1.121-2.504-2.503v-5.932
		c0-1.383,1.122-2.503,2.504-2.503h18.58c1.384,0,2.504,1.121,2.504,2.503V50.958z"/>
	<path fill="#F2F2F2" d="M23.586,65.261c0,1.383-1.12,2.503-2.503,2.503H2.503C1.121,67.765,0,66.644,0,65.261v-5.932
		c0-1.383,1.121-2.503,2.503-2.503h18.58c1.383,0,2.503,1.121,2.503,2.503V65.261z"/>
	<path fill="#F2F2F2" d="M50.438,65.261c0,1.383-1.121,2.503-2.503,2.503H29.354c-1.382,0-2.503-1.121-2.503-2.503v-5.932
		c0-1.383,1.121-2.503,2.503-2.503h18.581c1.382,0,2.503,1.121,2.503,2.503V65.261z"/>
	<path fill="#F2F2F2" d="M77.29,65.261c0,1.383-1.121,2.503-2.503,2.503h-18.58c-1.382,0-2.503-1.121-2.503-2.503v-5.932
		c0-1.383,1.121-2.503,2.503-2.503h18.58c1.383,0,2.503,1.121,2.503,2.503V65.261z"/>
	<path fill="#F2F2F2" d="M104.141,65.261c0,1.383-1.12,2.503-2.503,2.503h-18.58c-1.383,0-2.504-1.121-2.504-2.503v-5.932
		c0-1.383,1.121-2.503,2.504-2.503h18.58c1.383,0,2.503,1.121,2.503,2.503V65.261z"/>
	<path fill="#F2F2F2" d="M130.993,65.261c0,1.383-1.122,2.503-2.503,2.503h-18.581c-1.383,0-2.503-1.121-2.503-2.503v-5.932
		c0-1.383,1.12-2.503,2.503-2.503h18.581c1.381,0,2.503,1.121,2.503,2.503V65.261z"/>
	<path fill="#F2F2F2" d="M157.844,65.261c0,1.383-1.12,2.503-2.503,2.503H136.76c-1.382,0-2.503-1.121-2.503-2.503v-5.932
		c0-1.383,1.121-2.503,2.503-2.503h18.581c1.383,0,2.503,1.121,2.503,2.503V65.261z"/>
	<path fill="#F2F2F2" d="M184.695,65.261c0,1.383-1.119,2.503-2.504,2.503h-18.579c-1.383,0-2.504-1.121-2.504-2.503v-5.932
		c0-1.383,1.121-2.503,2.504-2.503h18.579c1.385,0,2.504,1.121,2.504,2.503V65.261z"/>
	<path fill="#F2F2F2" d="M211.547,65.261c0,1.383-1.12,2.503-2.503,2.503h-18.58c-1.383,0-2.504-1.121-2.504-2.503v-5.932
		c0-1.383,1.121-2.503,2.504-2.503h18.58c1.383,0,2.503,1.121,2.503,2.503V65.261z"/>
	<path fill="#F2F2F2" d="M37.012,79.537c0,1.383-1.121,2.503-2.503,2.503h-18.58c-1.382,0-2.503-1.121-2.503-2.503v-5.933
		c0-1.382,1.121-2.503,2.503-2.503h18.58c1.383,0,2.503,1.121,2.503,2.503V79.537z"/>
	<path fill="#F2F2F2" d="M63.864,79.537c0,1.383-1.121,2.503-2.503,2.503H42.78c-1.383,0-2.503-1.121-2.503-2.503v-5.933
		c0-1.382,1.121-2.503,2.503-2.503h18.58c1.383,0,2.503,1.121,2.503,2.503V79.537z"/>
	<path fill="#F2F2F2" d="M90.715,79.537c0,1.383-1.12,2.503-2.503,2.503h-18.58c-1.382,0-2.503-1.121-2.503-2.503v-5.933
		c0-1.382,1.121-2.503,2.503-2.503h18.58c1.383,0,2.503,1.121,2.503,2.503V79.537z"/>
	<path fill="#F2F2F2" d="M117.566,79.537c0,1.383-1.12,2.503-2.503,2.503h-18.58c-1.383,0-2.503-1.121-2.503-2.503v-5.933
		c0-1.382,1.12-2.503,2.503-2.503h18.58c1.383,0,2.503,1.121,2.503,2.503V79.537z"/>
	<path fill="#F2F2F2" d="M144.419,79.537c0,1.383-1.121,2.503-2.503,2.503h-18.581c-1.383,0-2.503-1.121-2.503-2.503v-5.933
		c0-1.382,1.12-2.503,2.503-2.503h18.581c1.382,0,2.503,1.121,2.503,2.503V79.537z"/>
	<path fill="#F2F2F2" d="M171.27,79.537c0,1.383-1.121,2.503-2.503,2.503h-18.581c-1.382,0-2.503-1.121-2.503-2.503v-5.933
		c0-1.382,1.121-2.503,2.503-2.503h18.581c1.382,0,2.503,1.121,2.503,2.503V79.537z"/>
	<path fill="#F2F2F2" d="M198.121,79.537c0,1.383-1.12,2.503-2.504,2.503h-18.58c-1.382,0-2.504-1.121-2.504-2.503v-5.933
		c0-1.382,1.122-2.503,2.504-2.503h18.58c1.384,0,2.504,1.121,2.504,2.503V79.537z"/>
	<path fill="#F2F2F2" d="M23.586,93.839c0,1.382-1.12,2.504-2.503,2.504H2.503C1.121,96.343,0,95.222,0,93.839v-5.933
		c0-1.382,1.121-2.503,2.503-2.503h18.58c1.383,0,2.503,1.121,2.503,2.503V93.839z"/>
	<path fill="#F2F2F2" d="M50.438,93.839c0,1.382-1.121,2.504-2.503,2.504H29.354c-1.382,0-2.503-1.122-2.503-2.504v-5.933
		c0-1.382,1.121-2.503,2.503-2.503h18.581c1.382,0,2.503,1.121,2.503,2.503V93.839z"/>
	<path fill="#F2F2F2" d="M77.29,93.839c0,1.382-1.121,2.504-2.503,2.504h-18.58c-1.382,0-2.503-1.122-2.503-2.504v-5.933
		c0-1.382,1.121-2.503,2.503-2.503h18.58c1.383,0,2.503,1.121,2.503,2.503V93.839z"/>
	<path fill="#F2F2F2" d="M104.141,93.839c0,1.382-1.12,2.504-2.503,2.504h-18.58c-1.383,0-2.504-1.122-2.504-2.504v-5.933
		c0-1.382,1.121-2.503,2.504-2.503h18.58c1.383,0,2.503,1.121,2.503,2.503V93.839z"/>
	<path fill="#F2F2F2" d="M130.993,93.839c0,1.382-1.122,2.504-2.503,2.504h-18.581c-1.383,0-2.503-1.122-2.503-2.504v-5.933
		c0-1.382,1.12-2.503,2.503-2.503h18.581c1.381,0,2.503,1.121,2.503,2.503V93.839z"/>
	<path fill="#F2F2F2" d="M157.844,93.839c0,1.382-1.12,2.504-2.503,2.504H136.76c-1.382,0-2.503-1.122-2.503-2.504v-5.933
		c0-1.382,1.121-2.503,2.503-2.503h18.581c1.383,0,2.503,1.121,2.503,2.503V93.839z"/>
	<path fill="#F2F2F2" d="M184.695,93.839c0,1.382-1.119,2.504-2.504,2.504h-18.579c-1.383,0-2.504-1.122-2.504-2.504v-5.933
		c0-1.382,1.121-2.503,2.504-2.503h18.579c1.385,0,2.504,1.121,2.504,2.503V93.839z"/>
	<path fill="#F2F2F2" d="M211.547,93.839c0,1.382-1.12,2.504-2.503,2.504h-18.58c-1.383,0-2.504-1.122-2.504-2.504v-5.933
		c0-1.382,1.121-2.503,2.504-2.503h18.58c1.383,0,2.503,1.121,2.503,2.503V93.839z"/>
	<path fill="#F2F2F2" d="M23.586,8.436c0,1.382-1.12,2.503-2.503,2.503H2.503C1.121,10.939,0,9.818,0,8.436V2.503
		C0,1.121,1.121,0,2.503,0h18.58c1.383,0,2.503,1.121,2.503,2.503V8.436z"/>
	<path fill="#F2F2F2" d="M50.438,8.436c0,1.382-1.121,2.503-2.503,2.503H29.354c-1.382,0-2.503-1.121-2.503-2.503V2.503
		C26.851,1.121,27.972,0,29.354,0h18.581c1.382,0,2.503,1.121,2.503,2.503V8.436z"/>
	<path fill="#F2F2F2" d="M77.29,8.436c0,1.382-1.121,2.503-2.503,2.503h-18.58c-1.382,0-2.503-1.121-2.503-2.503V2.503
		C53.703,1.121,54.824,0,56.206,0h18.58c1.383,0,2.503,1.121,2.503,2.503V8.436z"/>
	<path fill="#F2F2F2" d="M104.141,8.436c0,1.382-1.12,2.503-2.503,2.503h-18.58c-1.383,0-2.504-1.121-2.504-2.503V2.503
		C80.554,1.121,81.675,0,83.058,0h18.58c1.383,0,2.503,1.121,2.503,2.503V8.436z"/>
	<path fill="#F2F2F2" d="M130.993,8.436c0,1.382-1.122,2.503-2.503,2.503h-18.581c-1.383,0-2.503-1.121-2.503-2.503V2.503
		c0-1.383,1.12-2.503,2.503-2.503h18.581c1.381,0,2.503,1.121,2.503,2.503V8.436z"/>
	<path fill="#F2F2F2" d="M157.844,8.436c0,1.382-1.12,2.503-2.503,2.503H136.76c-1.382,0-2.503-1.121-2.503-2.503V2.503
		c0-1.383,1.121-2.503,2.503-2.503h18.581c1.383,0,2.503,1.121,2.503,2.503V8.436z"/>
	<path fill="#F2F2F2" d="M184.695,8.436c0,1.382-1.119,2.503-2.504,2.503h-18.579c-1.383,0-2.504-1.121-2.504-2.503V2.503
		c0-1.383,1.121-2.503,2.504-2.503h18.579c1.385,0,2.504,1.121,2.504,2.503V8.436z"/>
	<path fill="#F2F2F2" d="M211.547,8.436c0,1.382-1.12,2.503-2.503,2.503h-18.58c-1.383,0-2.504-1.121-2.504-2.503V2.503
		c0-1.383,1.121-2.503,2.504-2.503h18.58c1.383,0,2.503,1.121,2.503,2.503V8.436z"/>
	<path fill="#F2F2F2" d="M37.012,22.711c0,1.383-1.121,2.503-2.503,2.503h-18.58c-1.382,0-2.503-1.121-2.503-2.503v-5.932
		c0-1.383,1.121-2.503,2.503-2.503h18.58c1.383,0,2.503,1.121,2.503,2.503V22.711z"/>
	<path fill="#F2F2F2" d="M63.864,22.711c0,1.383-1.121,2.503-2.503,2.503H42.78c-1.383,0-2.503-1.121-2.503-2.503v-5.932
		c0-1.383,1.121-2.503,2.503-2.503h18.58c1.383,0,2.503,1.121,2.503,2.503V22.711z"/>
	<path fill="#F2F2F2" d="M90.715,22.711c0,1.383-1.12,2.503-2.503,2.503h-18.58c-1.382,0-2.503-1.121-2.503-2.503v-5.932
		c0-1.383,1.121-2.503,2.503-2.503h18.58c1.383,0,2.503,1.121,2.503,2.503V22.711z"/>
	<path fill="#F2F2F2" d="M117.566,22.711c0,1.383-1.12,2.503-2.503,2.503h-18.58c-1.383,0-2.503-1.121-2.503-2.503v-5.932
		c0-1.383,1.12-2.503,2.503-2.503h18.58c1.383,0,2.503,1.121,2.503,2.503V22.711z"/>
	<path fill="#F2F2F2" d="M144.419,22.711c0,1.383-1.121,2.503-2.503,2.503h-18.581c-1.383,0-2.503-1.121-2.503-2.503v-5.932
		c0-1.383,1.12-2.503,2.503-2.503h18.581c1.382,0,2.503,1.121,2.503,2.503V22.711z"/>
	<path fill="#F2F2F2" d="M171.27,22.711c0,1.383-1.121,2.503-2.503,2.503h-18.581c-1.382,0-2.503-1.121-2.503-2.503v-5.932
		c0-1.383,1.121-2.503,2.503-2.503h18.581c1.382,0,2.503,1.121,2.503,2.503V22.711z"/>
	<path fill="#F2F2F2" d="M198.121,22.711c0,1.383-1.12,2.503-2.504,2.503h-18.58c-1.382,0-2.504-1.121-2.504-2.503v-5.932
		c0-1.383,1.122-2.503,2.504-2.503h18.58c1.384,0,2.504,1.121,2.504,2.503V22.711z"/>
	<path fill="#F2F2F2" d="M23.586,37.014c0,1.382-1.12,2.504-2.503,2.504H2.503C1.121,39.518,0,38.396,0,37.014v-5.932
		c0-1.383,1.121-2.504,2.503-2.504h18.58c1.383,0,2.503,1.121,2.503,2.504V37.014z"/>
	<path fill="#F2F2F2" d="M50.438,37.014c0,1.382-1.121,2.504-2.503,2.504H29.354c-1.382,0-2.503-1.122-2.503-2.504v-5.932
		c0-1.383,1.121-2.504,2.503-2.504h18.581c1.382,0,2.503,1.121,2.503,2.504V37.014z"/>
	<path fill="#F2F2F2" d="M77.29,37.014c0,1.382-1.121,2.504-2.503,2.504h-18.58c-1.382,0-2.503-1.122-2.503-2.504v-5.932
		c0-1.383,1.121-2.504,2.503-2.504h18.58c1.383,0,2.503,1.121,2.503,2.504V37.014z"/>
	<path fill="#F2F2F2" d="M104.141,37.014c0,1.382-1.12,2.504-2.503,2.504h-18.58c-1.383,0-2.504-1.122-2.504-2.504v-5.932
		c0-1.383,1.121-2.504,2.504-2.504h18.58c1.383,0,2.503,1.121,2.503,2.504V37.014z"/>
	<path fill="#F2F2F2" d="M130.993,37.014c0,1.382-1.122,2.504-2.503,2.504h-18.581c-1.383,0-2.503-1.122-2.503-2.504v-5.932
		c0-1.383,1.12-2.504,2.503-2.504h18.581c1.381,0,2.503,1.121,2.503,2.504V37.014z"/>
	<path fill="#F2F2F2" d="M157.844,37.014c0,1.382-1.12,2.504-2.503,2.504H136.76c-1.382,0-2.503-1.122-2.503-2.504v-5.932
		c0-1.383,1.121-2.504,2.503-2.504h18.581c1.383,0,2.503,1.121,2.503,2.504V37.014z"/>
	<path fill="#F2F2F2" d="M184.695,37.014c0,1.382-1.119,2.504-2.504,2.504h-18.579c-1.383,0-2.504-1.122-2.504-2.504v-5.932
		c0-1.383,1.121-2.504,2.504-2.504h18.579c1.385,0,2.504,1.121,2.504,2.504V37.014z"/>
	<path fill="#F2F2F2" d="M211.547,37.014c0,1.382-1.12,2.504-2.503,2.504h-18.58c-1.383,0-2.504-1.122-2.504-2.504v-5.932
		c0-1.383,1.121-2.504,2.504-2.504h18.58c1.383,0,2.503,1.121,2.503,2.504V37.014z"/>
</g>
<rect x="-84.818" y="532.113" fill="none" width="369.5" height="20.502"/>
<text transform="matrix(1 0 0 1 16.8486 537.7124)"><tspan x="0" y="0" fill="#313E5E" font-family="'Geometria-Bold'" font-size="8">Halaman yang Anda cari tidak ditemukan.</tspan><tspan x="-47.466" y="7.201" fill="#313E5E" font-family="'Geometria'" font-size="6">Kembali, atau kunjungi Direktorat Jenderal Kekayaan Intelektual untuk memilih arah baru.</tspan></text>
<g>
	<circle fill="#FFCD02" cx="105.232" cy="48.075" r="28.25"/>
	<g>
		<path fill="#FFFFFF" d="M95.993,55.954h-3.439V52.69H85.93v-2.477l6.565-8.02h3.498v7.744h1.908v2.752h-1.908V55.954z
			 M92.554,46.479l-2.89,3.459h2.89V46.479z"/>
		<path fill="#FFFFFF" d="M108.554,55.187c-0.957,0.694-2.063,1.042-3.322,1.042c-1.258,0-2.365-0.348-3.321-1.042
			c-0.931-0.682-1.625-1.56-2.084-2.635c-0.445-1.061-0.668-2.221-0.668-3.479c0-2.713,0.917-4.75,2.752-6.113
			c0.956-0.694,2.063-1.042,3.321-1.042c1.259,0,2.365,0.348,3.322,1.042c0.931,0.682,1.625,1.565,2.084,2.653
			c0.445,1.049,0.668,2.201,0.668,3.46C111.306,51.786,110.389,53.824,108.554,55.187z M105.231,52.985
			c0.813,0,1.436-0.386,1.868-1.159c0.445-0.76,0.668-1.678,0.668-2.752s-0.223-1.992-0.668-2.752
			c-0.433-0.773-1.056-1.16-1.868-1.16c-0.786,0-1.408,0.387-1.867,1.16c-0.445,0.76-0.668,1.678-0.668,2.752
			s0.223,1.992,0.668,2.752C103.823,52.599,104.445,52.985,105.231,52.985z"/>
		<path fill="#FFFFFF" d="M122.589,55.954h-3.439V52.69h-6.625v-2.477l6.565-8.02h3.499v7.744h1.907v2.752h-1.907V55.954z
			 M119.149,46.479l-2.89,3.459h2.89V46.479z"/>
	</g>
	<g>
		<path fill="#313E5E" d="M95.044,54.966h-3.439v-3.264H84.98v-2.477l6.565-8.02h3.498v7.744h1.908v2.752h-1.908V54.966z
			 M91.604,45.492l-2.89,3.459h2.89V45.492z"/>
		<path fill="#313E5E" d="M107.604,54.2c-0.957,0.694-2.063,1.042-3.322,1.042c-1.258,0-2.365-0.348-3.321-1.042
			c-0.931-0.682-1.625-1.56-2.084-2.635c-0.445-1.061-0.668-2.221-0.668-3.479c0-2.713,0.917-4.75,2.752-6.113
			c0.956-0.694,2.063-1.042,3.321-1.042c1.259,0,2.365,0.348,3.322,1.042c0.931,0.682,1.625,1.565,2.084,2.653
			c0.445,1.049,0.668,2.201,0.668,3.46C110.356,50.798,109.439,52.836,107.604,54.2z M104.282,51.998
			c0.813,0,1.436-0.386,1.868-1.159c0.445-0.76,0.668-1.678,0.668-2.752s-0.223-1.992-0.668-2.752
			c-0.433-0.773-1.056-1.16-1.868-1.16c-0.786,0-1.408,0.387-1.867,1.16c-0.445,0.76-0.668,1.678-0.668,2.752
			s0.223,1.992,0.668,2.752C102.874,51.612,103.496,51.998,104.282,51.998z"/>
		<path fill="#313E5E" d="M121.64,54.966H118.2v-3.264h-6.625v-2.477l6.565-8.02h3.499v7.744h1.907v2.752h-1.907V54.966z
			 M118.2,45.492l-2.89,3.459h2.89V45.492z"/>
	</g>
</g>
</svg>
